<?xml version="1.0" standalone="no"?>

<svg 
     version="1.1"
     baseProfile="full"
     xmlns="http://www.w3.org/2000/svg"
     xmlns:xlink="http://www.w3.org/1999/xlink"
     xmlns:ev="http://www.w3.org/2001/xml-events"
     xmlns:klighd="http://de.cau.cs.kieler/klighd"
     x="0px"
     y="0px"
     width="295px"
     height="109px"
     viewBox="0 0 295 109"
     >
<title></title>
<desc>Creator: FreeHEP Graphics2D Driver Producer: de.cau.cs.kieler.klighd.piccolo.freehep.SemanticSVGGraphics2D Revision Source:  Date: Saturday, April 22, 2023 at 3:52:16 PM Central European Summer Time</desc>
<g stroke-dashoffset="0" stroke-linejoin="miter" stroke-dasharray="none" stroke-width="1" stroke-linecap="butt" stroke-miterlimit="10">
<g fill="#ffffff" fill-rule="nonzero" fill-opacity="1" stroke="none">
  <path d="M 0 0 L 295 0 L 295 109 L 0 109 L 0 0 z"/>
</g>
<g fill="#ffffff" fill-rule="nonzero" fill-opacity="1" stroke="none">
  <path d="M 0.5 8.5 L 0.5 100.5 C 0.5 104.91827799864635 4.081722001353653 108.5 8.5 108.5 L 286.5 108.5 C 290.9182779986464 108.5 294.5 104.91827799864635 294.5 100.5 L 294.5 8.5 C 294.5 4.081722001353653 290.9182779986464 0.5 286.5 0.5 L 8.5 0.5 C 4.081722001353653 0.5 0.5 4.081722001353653 0.5 8.5 z"/>
</g>
<g stroke-opacity="1" fill="none" stroke="#bebebe">
  <path d="M 0.5 8.5 L 0.5 100.5 C 0.5 104.91827799864635 4.081722001353653 108.5 8.5 108.5 L 286.5 108.5 C 290.9182779986464 108.5 294.5 104.91827799864635 294.5 100.5 L 294.5 8.5 C 294.5 4.081722001353653 290.9182779986464 0.5 286.5 0.5 L 8.5 0.5 C 4.081722001353653 0.5 0.5 4.081722001353653 0.5 8.5 z"/>
</g>
<g transform="matrix(1, 0, 0, 1, 107.5, 6)">
  <text x="0" y="10.0" font-weight="normal" font-size="10px" font-style="normal" fill="#000000" stroke="none" font-family="Helvetica" style="white-space: pre" fill-opacity="1" textLength="80.0px" lengthAdjust="spacingAndGlyphs">SensorSimulator</text>
</g>
<g transform="matrix(1, 0, 0, 1, 6, 23)">
<g fill="#ffffff" fill-rule="nonzero" fill-opacity="1" stroke="none">
  <path d="M 17.5 9 C 17.5 13.694420373561742 13.694420373561742 17.5 9 17.5 C 4.305579626438257 17.5 0.5 13.694420373561742 0.5 9 C 0.5 4.305579626438257 4.305579626438257 0.5 9 0.5 C 13.694420373561742 0.5 17.5 4.305579626438257 17.5 9 z"/>
</g>
</g>
<g transform="matrix(1, 0, 0, 1, 6, 23)">
<g stroke-opacity="1" fill="none" stroke="#000000">
  <path d="M 17.5 9 C 17.5 13.694420373561742 13.694420373561742 17.5 9 17.5 C 4.305579626438257 17.5 0.5 13.694420373561742 0.5 9 C 0.5 4.305579626438257 4.305579626438257 0.5 9 0.5 C 13.694420373561742 0.5 17.5 4.305579626438257 17.5 9 z"/>
</g>
</g>
<g transform="matrix(1, 0, 0, 1, 195.5, 21)">
<g fill="#f2f2f2" fill-rule="nonzero" fill-opacity="1" stroke="none">
  <path d="M 29.5 15 C 29.5 23.0081288725465 23.0081288725465 29.5 15 29.5 C 6.991871127453496 29.5 0.5 23.0081288725465 0.5 15 C 0.5 6.991871127453496 6.991871127453496 0.5 15 0.5 C 23.0081288725465 0.5 29.5 6.991871127453496 29.5 15 z"/>
</g>
</g>
<g transform="matrix(1, 0, 0, 1, 195.5, 21)">
<g stroke-opacity="1" fill="none" stroke="#000000">
  <path d="M 29.5 15 C 29.5 23.0081288725465 23.0081288725465 29.5 15 29.5 C 6.991871127453496 29.5 0.5 23.0081288725465 0.5 15 C 0.5 6.991871127453496 6.991871127453496 0.5 15 0.5 C 23.0081288725465 0.5 29.5 6.991871127453496 29.5 15 z"/>
</g>
</g>
<g transform="matrix(1, 0, 0, 1, 195.5, 21)">
<g stroke-opacity="1" fill="none" stroke="#000000">
  <path d="M 15 3 L 15 15 L 21 21"/>
</g>
</g>
<g transform="matrix(1, 0, 0, 1, 192, 56)">
  <text x="0" y="8.0" font-weight="normal" font-size="8px" font-style="normal" fill="#000000" stroke="none" font-family="Helvetica" style="white-space: pre" fill-opacity="1" textLength="37.0px" lengthAdjust="spacingAndGlyphs">(0, 1 sec)</text>
</g>
<g transform="matrix(1, 0, 0, 1, 10, 58)">
<g fill="#f2f2f2" fill-rule="nonzero" fill-opacity="1" stroke="none">
  <path d="M 29.5 15 C 29.5 23.0081288725465 23.0081288725465 29.5 15 29.5 C 6.991871127453496 29.5 0.5 23.0081288725465 0.5 15 C 0.5 6.991871127453496 6.991871127453496 0.5 15 0.5 C 23.0081288725465 0.5 29.5 6.991871127453496 29.5 15 z"/>
</g>
</g>
<g transform="matrix(1, 0, 0, 1, 10, 58)">
<g stroke-opacity="1" fill="none" stroke="#000000">
  <path d="M 29.5 15 C 29.5 23.0081288725465 23.0081288725465 29.5 15 29.5 C 6.991871127453496 29.5 0.5 23.0081288725465 0.5 15 C 0.5 6.991871127453496 6.991871127453496 0.5 15 0.5 C 23.0081288725465 0.5 29.5 6.991871127453496 29.5 15 z"/>
</g>
</g>
<g transform="matrix(1, 0, 0, 1, 10, 58)">
<g stroke-opacity="1" fill="none" stroke="#000000">
  <path d="M 15 3 L 15 15 L 21 21"/>
</g>
</g>
<g transform="matrix(1, 0, 0, 1, 6, 93)">
  <text x="0" y="8.0" font-weight="normal" font-size="8px" font-style="normal" fill="#000000" stroke="none" font-family="Helvetica" style="white-space: pre" fill-opacity="1" textLength="38.0px" lengthAdjust="spacingAndGlyphs">(0, 2 sec)</text>
</g>
<g transform="matrix(1, 0, 0, 1, 39, 21)">
<g fill="#a6a6a6" fill-rule="nonzero" fill-opacity="1" stroke="none">
  <path d="M 0 0 L 39 0 L 45 11 L 39 22 L 0 22 L 6 11 z"/>
</g>
</g>
<g transform="matrix(1, 0, 0, 1, 39, 21)">
<g stroke-opacity="1" fill="none" stroke="#737373">
  <path d="M 0 0 L 39 0 L 45 11 L 39 22 L 0 22 L 6 11 z"/>
</g>
</g>
<g transform="matrix(1, 0, 0, 1, 59, 26)">
  <text x="0" y="10.0" font-weight="bold" font-size="10px" font-style="normal" fill="#000000" stroke="none" font-family="Helvetica" style="white-space: pre" fill-opacity="1" textLength="5.0px" lengthAdjust="spacingAndGlyphs">1</text>
</g>
<g transform="matrix(1, 0, 0, 1, 244, 25)">
<g fill="#a6a6a6" fill-rule="nonzero" fill-opacity="1" stroke="none">
  <path d="M 0 0 L 39 0 L 45 11 L 39 22 L 0 22 L 6 11 z"/>
</g>
</g>
<g transform="matrix(1, 0, 0, 1, 244, 25)">
<g stroke-opacity="1" fill="none" stroke="#737373">
  <path d="M 0 0 L 39 0 L 45 11 L 39 22 L 0 22 L 6 11 z"/>
</g>
</g>
<g transform="matrix(1, 0, 0, 1, 263, 30)">
  <text x="0" y="10.0" font-weight="bold" font-size="10px" font-style="normal" fill="#000000" stroke="none" font-family="Helvetica" style="white-space: pre" fill-opacity="1" textLength="7.0px" lengthAdjust="spacingAndGlyphs">2</text>
</g>
<g transform="matrix(1, 0, 0, 1, 59, 62)">
<g fill="#a6a6a6" fill-rule="nonzero" fill-opacity="1" stroke="none">
  <path d="M 0 0 L 39 0 L 45 11 L 39 22 L 0 22 L 6 11 z"/>
</g>
</g>
<g transform="matrix(1, 0, 0, 1, 59, 62)">
<g stroke-opacity="1" fill="none" stroke="#737373">
  <path d="M 0 0 L 39 0 L 45 11 L 39 22 L 0 22 L 6 11 z"/>
</g>
</g>
<g transform="matrix(1, 0, 0, 1, 78, 67)">
  <text x="0" y="10.0" font-weight="bold" font-size="10px" font-style="normal" fill="#000000" stroke="none" font-family="Helvetica" style="white-space: pre" fill-opacity="1" textLength="7.0px" lengthAdjust="spacingAndGlyphs">3</text>
</g>
<g transform="matrix(1, 0, 0, 1, 132, 21)">
<g fill="#a6a6a6" fill-rule="nonzero" fill-opacity="1" stroke="none">
  <path d="M 0 0 L 39 0 L 45 11 L 39 22 L 0 22 L 6 11 z"/>
</g>
</g>
<g transform="matrix(1, 0, 0, 1, 132, 21)">
<g stroke-opacity="1" fill="none" stroke="#737373">
  <path d="M 0 0 L 39 0 L 45 11 L 39 22 L 0 22 L 6 11 z"/>
</g>
</g>
<g transform="matrix(1, 0, 0, 1, 151, 26)">
  <text x="0" y="10.0" font-weight="bold" font-size="10px" font-style="normal" fill="#000000" stroke="none" font-family="Helvetica" style="white-space: pre" fill-opacity="1" textLength="7.0px" lengthAdjust="spacingAndGlyphs">4</text>
</g>
<g transform="matrix(1, 0, 0, 1, 99, 23)">
<g fill="#ffffff" fill-rule="nonzero" fill-opacity="1" stroke="none">
  <path d="M 9 0 L 18 18 L 0 18 z"/>
</g>
</g>
<g transform="matrix(1, 0, 0, 1, 99, 23)">
<g stroke-opacity="1" fill="none" stroke="#000000">
  <path d="M 9 0 L 18 18 L 0 18 z"/>
</g>
</g>
<g transform="matrix(1, 0, 0, 1, 105, 29.699999809265137)">
  <text x="0" y="8.0" font-weight="normal" font-size="8px" font-style="normal" fill="#000000" stroke="none" font-family="Helvetica" style="white-space: pre" fill-opacity="1" textLength="6.0px" lengthAdjust="spacingAndGlyphs">P</text>
</g>
<g transform="matrix(1, 0, 0, 1, 0, 22)">
<g stroke-opacity="1" stroke-dasharray="3,1" fill="none" stroke="#000000">
  <path d="M 24 10 L 45 10"/>
</g>
</g>
<g transform="matrix(1, 0, 0, 1, 0, 22)">
<g stroke-opacity="1" stroke-dasharray="3,1" fill="none" stroke="#000000">
  <path d="M 225.5 14 L 250 14"/>
</g>
</g>
<g transform="matrix(1, 0, 0, 1, 0, 22)">
<g stroke-opacity="1" stroke-dasharray="3,1" fill="none" stroke="#000000">
  <path d="M 40 51 L 65 51"/>
</g>
</g>
<g transform="matrix(1, 0, 0, 1, 0, 22)">
<g stroke-opacity="1" stroke-dasharray="3,1" fill="none" stroke="#000000">
  <path d="M 84 10 L 103.5 10"/>
</g>
</g>
<g transform="matrix(1, 0, 0, 1, 0, 22)">
<g stroke-opacity="1" stroke-dasharray="3,1" fill="none" stroke="#000000">
  <path d="M 112.5 10 L 138 10"/>
</g>
</g>
</g>
</svg>
