<?xml version="1.0" standalone="no"?>

<svg 
     version="1.1"
     baseProfile="full"
     xmlns="http://www.w3.org/2000/svg"
     xmlns:xlink="http://www.w3.org/1999/xlink"
     xmlns:ev="http://www.w3.org/2001/xml-events"
     xmlns:klighd="http://de.cau.cs.kieler/klighd"
     x="0px"
     y="0px"
     width="794px"
     height="146px"
     viewBox="0 0 794 146"
     >
<title></title>
<desc>Creator: FreeHEP Graphics2D Driver Producer: de.cau.cs.kieler.klighd.piccolo.freehep.SemanticSVGGraphics2D Revision Source:  Date: Sunday, April 23, 2023 at 9:04:24 AM Central European Summer Time</desc>
<g stroke-dashoffset="0" stroke-linejoin="miter" stroke-dasharray="none" stroke-width="1" stroke-linecap="butt" stroke-miterlimit="10">
<g fill="#ffffff" fill-rule="nonzero" fill-opacity="1" stroke="none">
  <path d="M 0 0 L 793.9000244140625 0 L 793.9000244140625 145.5 L 0 145.5 L 0 0 z"/>
</g>
<g fill="#ffffff" fill-rule="nonzero" fill-opacity="1" stroke="none">
  <path d="M 1 9 L 1 136.5 C 1 140.91827799864635 4.581722001353653 144.5 9 144.5 L 784.9000244140625 144.5 C 789.3183024127088 144.5 792.9000244140625 140.91827799864635 792.9000244140625 136.5 L 792.9000244140625 9 C 792.9000244140625 4.581722001353653 789.3183024127088 1 784.9000244140625 1 L 9 1 C 4.581722001353653 1 1 4.581722001353653 1 9 z"/>
</g>
<g stroke-opacity="1" stroke-width="2" fill="none" stroke="#bebebe">
  <path d="M 1 9 L 1 136.5 C 1 140.91827799864635 4.581722001353653 144.5 9 144.5 L 784.9000244140625 144.5 C 789.3183024127088 144.5 792.9000244140625 140.91827799864635 792.9000244140625 136.5 L 792.9000244140625 9 C 792.9000244140625 4.581722001353653 789.3183024127088 1 784.9000244140625 1 L 9 1 C 4.581722001353653 1 1 4.581722001353653 1 9 z"/>
</g>
<g transform="matrix(1, 0, 0, 1, 338.95001220703125, 6)">
  <text x="0" y="10.0" font-weight="normal" font-size="10px" font-style="normal" fill="#000000" stroke="none" font-family="Helvetica" style="white-space: pre" fill-opacity="1" textLength="91.0px" lengthAdjust="spacingAndGlyphs">RhythmDistributed</text>
</g>
<g transform="matrix(1, 0, 0, 1, 434.95001220703125, 12)">
<g fill="#bebebe" fill-rule="nonzero" fill-opacity="1" stroke="none">
  <path d="M 0.5 2.5 L 0.5 3.5 C 0.5 4.6045694996615865 1.3954305003384133 5.5 2.5 5.5 L 17.5 5.5 C 18.604569499661586 5.5 19.5 4.6045694996615865 19.5 3.5 L 19.5 2.5 C 19.5 1.3954305003384133 18.604569499661586 0.5 17.5 0.5 L 2.5 0.5 C 1.3954305003384133 0.5 0.5 1.3954305003384133 0.5 2.5 z"/>
</g>
</g>
<g transform="matrix(1, 0, 0, 1, 434.95001220703125, 12)">
<g stroke-opacity="1" fill="none" stroke="#bebebe">
  <path d="M 0.5 2.5 L 0.5 3.5 C 0.5 4.6045694996615865 1.3954305003384133 5.5 2.5 5.5 L 17.5 5.5 C 18.604569499661586 5.5 19.5 4.6045694996615865 19.5 3.5 L 19.5 2.5 C 19.5 1.3954305003384133 18.604569499661586 0.5 17.5 0.5 L 2.5 0.5 C 1.3954305003384133 0.5 0.5 1.3954305003384133 0.5 2.5 z"/>
</g>
</g>
<g transform="matrix(1, 0, 0, 1, 432.95001220703125, 10.559999942779541)">
<g fill="#bebebe" fill-rule="nonzero" fill-opacity="1" stroke="none">
  <path d="M 7.5 4 C 7.5 5.932996624407776 5.932996624407776 7.5 4 7.5 C 2.0670033755922232 7.5 0.5 5.932996624407776 0.5 4 C 0.5 2.0670033755922232 2.0670033755922232 0.5 4 0.5 C 5.932996624407776 0.5 7.5 2.0670033755922232 7.5 4 z"/>
</g>
</g>
<g transform="matrix(1, 0, 0, 1, 432.95001220703125, 10.559999942779541)">
<g stroke-opacity="1" fill="none" stroke="#bebebe">
  <path d="M 7.5 4 C 7.5 5.932996624407776 5.932996624407776 7.5 4 7.5 C 2.0670033755922232 7.5 0.5 5.932996624407776 0.5 4 C 0.5 2.0670033755922232 2.0670033755922232 0.5 4 0.5 C 5.932996624407776 0.5 7.5 2.0670033755922232 7.5 4 z"/>
</g>
</g>
<g transform="matrix(1, 0, 0, 1, 437.2833456993103, 9)">
<g fill="#bebebe" fill-rule="nonzero" fill-opacity="1" stroke="none">
  <path d="M 6.166666507720947 3.3333332538604736 C 6.166666507720947 4.898140001156072 4.898140001156072 6.166666507720947 3.3333332538604736 6.166666507720947 C 1.7685265065648743 6.166666507720947 0.5 4.898140001156072 0.5 3.3333332538604736 C 0.5 1.7685265065648743 1.7685265065648743 0.5 3.3333332538604736 0.5 C 4.898140001156072 0.5 6.166666507720947 1.7685265065648743 6.166666507720947 3.3333332538604736 z"/>
</g>
</g>
<g transform="matrix(1, 0, 0, 1, 437.2833456993103, 9)">
<g stroke-opacity="1" fill="none" stroke="#bebebe">
  <path d="M 6.166666507720947 3.3333332538604736 C 6.166666507720947 4.898140001156072 4.898140001156072 6.166666507720947 3.3333332538604736 6.166666507720947 C 1.7685265065648743 6.166666507720947 0.5 4.898140001156072 0.5 3.3333332538604736 C 0.5 1.7685265065648743 1.7685265065648743 0.5 3.3333332538604736 0.5 C 4.898140001156072 0.5 6.166666507720947 1.7685265065648743 6.166666507720947 3.3333332538604736 z"/>
</g>
</g>
<g transform="matrix(1, 0, 0, 1, 441.7500123977661, 8)">
<g fill="#bebebe" fill-rule="nonzero" fill-opacity="1" stroke="none">
  <path d="M 9.5 5 C 9.5 7.4852813742385695 7.4852813742385695 9.5 5 9.5 C 2.51471862576143 9.5 0.5 7.4852813742385695 0.5 5 C 0.5 2.51471862576143 2.51471862576143 0.5 5 0.5 C 7.4852813742385695 0.5 9.5 2.51471862576143 9.5 5 z"/>
</g>
</g>
<g transform="matrix(1, 0, 0, 1, 441.7500123977661, 8)">
<g stroke-opacity="1" fill="none" stroke="#bebebe">
  <path d="M 9.5 5 C 9.5 7.4852813742385695 7.4852813742385695 9.5 5 9.5 C 2.51471862576143 9.5 0.5 7.4852813742385695 0.5 5 C 0.5 2.51471862576143 2.51471862576143 0.5 5 0.5 C 7.4852813742385695 0.5 9.5 2.51471862576143 9.5 5 z"/>
</g>
</g>
<g transform="matrix(1, 0, 0, 1, 101.69999694824219, 37)">
<g fill="#f2f2f2" fill-rule="nonzero" fill-opacity="1" stroke="none">
  <path d="M 0.5 8.5 L 0.5 94 C 0.5 98.41827799864635 4.081722001353653 102 8.5 102 L 387.6000061035156 102 C 392.018284102162 102 395.6000061035156 98.41827799864635 395.6000061035156 94 L 395.6000061035156 8.5 C 395.6000061035156 4.081722001353653 392.018284102162 0.5 387.6000061035156 0.5 L 8.5 0.5 C 4.081722001353653 0.5 0.5 4.081722001353653 0.5 8.5 z"/>
</g>
</g>
<g transform="matrix(1, 0, 0, 1, 101.69999694824219, 37)">
<g stroke-opacity="1" fill="none" stroke="#bebebe">
  <path d="M 0.5 8.5 L 0.5 94 C 0.5 98.41827799864635 4.081722001353653 102 8.5 102 L 387.6000061035156 102 C 392.018284102162 102 395.6000061035156 98.41827799864635 395.6000061035156 94 L 395.6000061035156 8.5 C 395.6000061035156 4.081722001353653 392.018284102162 0.5 387.6000061035156 0.5 L 8.5 0.5 C 4.081722001353653 0.5 0.5 4.081722001353653 0.5 8.5 z"/>
</g>
</g>
<g transform="matrix(1, 0, 0, 1, 284.75, 43)">
  <text x="0" y="10.0" font-weight="normal" font-size="10px" font-style="normal" fill="#000000" stroke="none" font-family="Helvetica" style="white-space: pre" fill-opacity="1" textLength="30.0px" lengthAdjust="spacingAndGlyphs">Player</text>
</g>
<g transform="matrix(1, 0, 0, 1, 189.39999389648438, 64)">
<g fill="#f2f2f2" fill-rule="nonzero" fill-opacity="1" stroke="none">
  <path d="M 0.5 8.5 L 0.5 61 C 0.5 65.41827799864635 4.081722001353653 69 8.5 69 L 74.5 69 C 78.91827799864635 69 82.5 65.41827799864635 82.5 61 L 82.5 8.5 C 82.5 4.081722001353653 78.91827799864635 0.5 74.5 0.5 L 8.5 0.5 C 4.081722001353653 0.5 0.5 4.081722001353653 0.5 8.5 z"/>
</g>
</g>
<g transform="matrix(1, 0, 0, 1, 189.39999389648438, 64)">
<g stroke-opacity="1" fill="none" stroke="#bebebe">
  <path d="M 0.5 8.5 L 0.5 61 C 0.5 65.41827799864635 4.081722001353653 69 8.5 69 L 74.5 69 C 78.91827799864635 69 82.5 65.41827799864635 82.5 61 L 82.5 8.5 C 82.5 4.081722001353653 78.91827799864635 0.5 74.5 0.5 L 8.5 0.5 C 4.081722001353653 0.5 0.5 4.081722001353653 0.5 8.5 z"/>
</g>
</g>
<g transform="matrix(1, 0, 0, 1, 195.39999389648438, 93.75)">
  <text x="0" y="10.0" font-weight="normal" font-size="10px" font-style="normal" fill="#000000" stroke="none" font-family="Helvetica" style="white-space: pre" fill-opacity="1" textLength="71.0px" lengthAdjust="spacingAndGlyphs">RhythmSource</text>
</g>
<g transform="matrix(1, 0, 0, 1, 184.69999408721924, 108)">
<g fill="#000000" fill-rule="nonzero" fill-opacity="1" stroke="none">
  <path d="M 0 0 L 8 4 L 0 8 z"/>
</g>
</g>
<g transform="matrix(1, 0, 0, 1, 184.69999408721924, 108)">
<g stroke-opacity="1" fill="none" stroke="#000000">
  <path d="M 0 0 L 8 4 L 0 8 z"/>
</g>
</g>
<g transform="matrix(1, 0, 0, 1, 108.69999408721924, 101)">
  <text x="0" y="8.0" font-weight="normal" font-size="8px" font-style="normal" fill="#000000" stroke="none" font-family="Helvetica" style="white-space: pre" fill-opacity="1" textLength="74.0px" lengthAdjust="spacingAndGlyphs">rhythm_change_in</text>
</g>
<g transform="matrix(1, 0, 0, 1, 184.69999408721924, 82)">
<g fill="#000000" fill-rule="nonzero" fill-opacity="1" stroke="none">
  <path d="M 0 0 L 8 4 L 0 8 z"/>
</g>
</g>
<g transform="matrix(1, 0, 0, 1, 184.69999408721924, 82)">
<g stroke-opacity="1" fill="none" stroke="#000000">
  <path d="M 0 0 L 8 4 L 0 8 z"/>
</g>
</g>
<g transform="matrix(1, 0, 0, 1, 111.69999408721924, 75)">
  <text x="0" y="8.0" font-weight="normal" font-size="8px" font-style="normal" fill="#000000" stroke="none" font-family="Helvetica" style="white-space: pre" fill-opacity="1" textLength="71.0px" lengthAdjust="spacingAndGlyphs">tempo_change_in</text>
</g>
<g transform="matrix(1, 0, 0, 1, 269.09999084472656, 72)">
<g fill="#000000" fill-rule="nonzero" fill-opacity="1" stroke="none">
  <path d="M 0 0 L 8 4 L 0 8 z"/>
</g>
</g>
<g transform="matrix(1, 0, 0, 1, 269.09999084472656, 72)">
<g stroke-opacity="1" fill="none" stroke="#000000">
  <path d="M 0 0 L 8 4 L 0 8 z"/>
</g>
</g>
<g transform="matrix(1, 0, 0, 1, 279.09999084472656, 65)">
  <text x="0" y="8.0" font-weight="normal" font-size="8px" font-style="normal" fill="#000000" stroke="none" font-family="Helvetica" style="white-space: pre" fill-opacity="1" textLength="18.0px" lengthAdjust="spacingAndGlyphs">note</text>
</g>
<g transform="matrix(1, 0, 0, 1, 269.09999084472656, 87)">
<g fill="#000000" fill-rule="nonzero" fill-opacity="1" stroke="none">
  <path d="M 0 0 L 8 4 L 0 8 z"/>
</g>
</g>
<g transform="matrix(1, 0, 0, 1, 269.09999084472656, 87)">
<g stroke-opacity="1" fill="none" stroke="#000000">
  <path d="M 0 0 L 8 4 L 0 8 z"/>
</g>
</g>
<g transform="matrix(1, 0, 0, 1, 279.09999084472656, 80)">
  <text x="0" y="8.0" font-weight="normal" font-size="8px" font-style="normal" fill="#000000" stroke="none" font-family="Helvetica" style="white-space: pre" fill-opacity="1" textLength="43.0px" lengthAdjust="spacingAndGlyphs">instrument</text>
</g>
<g transform="matrix(1, 0, 0, 1, 269.09999084472656, 103)">
<g fill="#000000" fill-rule="nonzero" fill-opacity="1" stroke="none">
  <path d="M 0 0 L 8 4 L 0 8 z"/>
</g>
</g>
<g transform="matrix(1, 0, 0, 1, 269.09999084472656, 103)">
<g stroke-opacity="1" fill="none" stroke="#000000">
  <path d="M 0 0 L 8 4 L 0 8 z"/>
</g>
</g>
<g transform="matrix(1, 0, 0, 1, 279.09999084472656, 96)">
  <text x="0" y="8.0" font-weight="normal" font-size="8px" font-style="normal" fill="#000000" stroke="none" font-family="Helvetica" style="white-space: pre" fill-opacity="1" textLength="62.0px" lengthAdjust="spacingAndGlyphs">rhythm_change</text>
</g>
<g transform="matrix(1, 0, 0, 1, 269.09999084472656, 118)">
<g fill="#000000" fill-rule="nonzero" fill-opacity="1" stroke="none">
  <path d="M 0 0 L 8 4 L 0 8 z"/>
</g>
</g>
<g transform="matrix(1, 0, 0, 1, 269.09999084472656, 118)">
<g stroke-opacity="1" fill="none" stroke="#000000">
  <path d="M 0 0 L 8 4 L 0 8 z"/>
</g>
</g>
<g transform="matrix(1, 0, 0, 1, 279.09999084472656, 111)">
  <text x="0" y="8.0" font-weight="normal" font-size="8px" font-style="normal" fill="#000000" stroke="none" font-family="Helvetica" style="white-space: pre" fill-opacity="1" textLength="59.0px" lengthAdjust="spacingAndGlyphs">tempo_change</text>
</g>
<g transform="matrix(1, 0, 0, 1, 401.8000030517578, 61)">
<g fill="#f2f2f2" fill-rule="nonzero" fill-opacity="1" stroke="none">
  <path d="M 0.5 8.5 L 0.5 30 C 0.5 34.418277998646346 4.081722001353653 38 8.5 38 L 72.5 38 C 76.91827799864635 38 80.5 34.418277998646346 80.5 30 L 80.5 8.5 C 80.5 4.081722001353653 76.91827799864635 0.5 72.5 0.5 L 8.5 0.5 C 4.081722001353653 0.5 0.5 4.081722001353653 0.5 8.5 z"/>
</g>
</g>
<g transform="matrix(1, 0, 0, 1, 401.8000030517578, 61)">
<g stroke-opacity="1" fill="none" stroke="#bebebe">
  <path d="M 0.5 8.5 L 0.5 30 C 0.5 34.418277998646346 4.081722001353653 38 8.5 38 L 72.5 38 C 76.91827799864635 38 80.5 34.418277998646346 80.5 30 L 80.5 8.5 C 80.5 4.081722001353653 76.91827799864635 0.5 72.5 0.5 L 8.5 0.5 C 4.081722001353653 0.5 0.5 4.081722001353653 0.5 8.5 z"/>
</g>
</g>
<g transform="matrix(1, 0, 0, 1, 407.8000030517578, 75.25)">
  <text x="0" y="10.0" font-weight="normal" font-size="10px" font-style="normal" fill="#000000" stroke="none" font-family="Helvetica" style="white-space: pre" fill-opacity="1" textLength="69.0px" lengthAdjust="spacingAndGlyphs">PlayWaveform</text>
</g>
<g transform="matrix(1, 0, 0, 1, 397.1000032424927, 69)">
<g fill="#000000" fill-rule="nonzero" fill-opacity="1" stroke="none">
  <path d="M 0 0 L 8 4 L 0 8 z"/>
</g>
</g>
<g transform="matrix(1, 0, 0, 1, 397.1000032424927, 69)">
<g stroke-opacity="1" fill="none" stroke="#000000">
  <path d="M 0 0 L 8 4 L 0 8 z"/>
</g>
</g>
<g transform="matrix(1, 0, 0, 1, 377.1000032424927, 62)">
  <text x="0" y="8.0" font-weight="normal" font-size="8px" font-style="normal" fill="#000000" stroke="none" font-family="Helvetica" style="white-space: pre" fill-opacity="1" textLength="18.0px" lengthAdjust="spacingAndGlyphs">note</text>
</g>
<g transform="matrix(1, 0, 0, 1, 397.1000032424927, 84)">
<g fill="#000000" fill-rule="nonzero" fill-opacity="1" stroke="none">
  <path d="M 0 0 L 8 4 L 0 8 z"/>
</g>
</g>
<g transform="matrix(1, 0, 0, 1, 397.1000032424927, 84)">
<g stroke-opacity="1" fill="none" stroke="#000000">
  <path d="M 0 0 L 8 4 L 0 8 z"/>
</g>
</g>
<g transform="matrix(1, 0, 0, 1, 356.1000032424927, 77)">
  <text x="0" y="8.0" font-weight="normal" font-size="8px" font-style="normal" fill="#000000" stroke="none" font-family="Helvetica" style="white-space: pre" fill-opacity="1" textLength="39.0px" lengthAdjust="spacingAndGlyphs">waveform</text>
</g>
<g transform="matrix(1, 0, 0, 1, 101.69999694824219, 59)">
<g stroke-opacity="1" fill="none" stroke="#000000">
  <path d="M 3.299999952316284 27 L 83 27"/>
</g>
</g>
<g transform="matrix(1, 0, 0, 1, 101.69999694824219, 59)">
<g stroke-opacity="1" fill="none" stroke="#000000">
  <path d="M 3.299999952316284 53 L 83 53"/>
</g>
</g>
<g transform="matrix(1, 0, 0, 1, 101.69999694824219, 59)">
<g stroke-opacity="1" fill="none" stroke="#000000">
  <path d="M 175.39999389648438 48 L 392.79998779296875 48"/>
</g>
</g>
<g transform="matrix(1, 0, 0, 1, 101.69999694824219, 59)">
<g stroke-opacity="1" fill="none" stroke="#000000">
  <path d="M 175.39999389648438 63 L 388.6000061035156 63 L 388.6000061035156 71 L 392.79998779296875 71"/>
</g>
</g>
<g transform="matrix(1, 0, 0, 1, 101.69999694824219, 59)">
<g stroke-opacity="1" fill="none" stroke="#000000">
  <path d="M 175.39999389648438 17 L 246.89999389648438 17 L 246.89999389648438 14 L 295.3999938964844 14"/>
</g>
</g>
<g transform="matrix(1, 0, 0, 1, 101.69999694824219, 59)">
<g stroke-opacity="1" fill="none" stroke="#000000">
  <path d="M 175.39999389648438 32 L 246.89999389648438 32 L 246.89999389648438 29 L 295.3999938964844 29"/>
</g>
</g>
<g transform="matrix(1, 0, 0, 1, 96.99999713897705, 82)">
<g fill="#000000" fill-rule="nonzero" fill-opacity="1" stroke="none">
  <path d="M 0 0 L 8 4 L 0 8 z"/>
</g>
</g>
<g transform="matrix(1, 0, 0, 1, 96.99999713897705, 82)">
<g stroke-opacity="1" fill="none" stroke="#000000">
  <path d="M 0 0 L 8 4 L 0 8 z"/>
</g>
</g>
<g transform="matrix(1, 0, 0, 1, 23.99999713897705, 75)">
  <text x="0" y="8.0" font-weight="normal" font-size="8px" font-style="normal" fill="#000000" stroke="none" font-family="Helvetica" style="white-space: pre" fill-opacity="1" textLength="71.0px" lengthAdjust="spacingAndGlyphs">tempo_change_in</text>
</g>
<g transform="matrix(1, 0, 0, 1, 96.99999713897705, 108)">
<g fill="#000000" fill-rule="nonzero" fill-opacity="1" stroke="none">
  <path d="M 0 0 L 8 4 L 0 8 z"/>
</g>
</g>
<g transform="matrix(1, 0, 0, 1, 96.99999713897705, 108)">
<g stroke-opacity="1" fill="none" stroke="#000000">
  <path d="M 0 0 L 8 4 L 0 8 z"/>
</g>
</g>
<g transform="matrix(1, 0, 0, 1, 20.99999713897705, 101)">
  <text x="0" y="8.0" font-weight="normal" font-size="8px" font-style="normal" fill="#000000" stroke="none" font-family="Helvetica" style="white-space: pre" fill-opacity="1" textLength="74.0px" lengthAdjust="spacingAndGlyphs">rhythm_change_in</text>
</g>
<g transform="matrix(1, 0, 0, 1, 494.49998474121094, 126)">
<g fill="#000000" fill-rule="nonzero" fill-opacity="1" stroke="none">
  <path d="M 0 0 L 8 4 L 0 8 z"/>
</g>
</g>
<g transform="matrix(1, 0, 0, 1, 494.49998474121094, 126)">
<g stroke-opacity="1" fill="none" stroke="#000000">
  <path d="M 0 0 L 8 4 L 0 8 z"/>
</g>
</g>
<g transform="matrix(1, 0, 0, 1, 504.49998474121094, 119)">
  <text x="0" y="8.0" font-weight="normal" font-size="8px" font-style="normal" fill="#000000" stroke="none" font-family="Helvetica" style="white-space: pre" fill-opacity="1" textLength="59.0px" lengthAdjust="spacingAndGlyphs">tempo_change</text>
</g>
<g transform="matrix(1, 0, 0, 1, 494.49998474121094, 103)">
<g fill="#000000" fill-rule="nonzero" fill-opacity="1" stroke="none">
  <path d="M 0 0 L 8 4 L 0 8 z"/>
</g>
</g>
<g transform="matrix(1, 0, 0, 1, 494.49998474121094, 103)">
<g stroke-opacity="1" fill="none" stroke="#000000">
  <path d="M 0 0 L 8 4 L 0 8 z"/>
</g>
</g>
<g transform="matrix(1, 0, 0, 1, 504.49998474121094, 96)">
  <text x="0" y="8.0" font-weight="normal" font-size="8px" font-style="normal" fill="#000000" stroke="none" font-family="Helvetica" style="white-space: pre" fill-opacity="1" textLength="62.0px" lengthAdjust="spacingAndGlyphs">rhythm_change</text>
</g>
<g transform="matrix(1, 0, 0, 1, 662.2000122070312, 95)">
<g fill="#f2f2f2" fill-rule="nonzero" fill-opacity="1" stroke="none">
  <path d="M 0.5 8.5 L 0.5 30 C 0.5 34.418277998646346 4.081722001353653 38 8.5 38 L 33.5 38 C 37.918277998646346 38 41.5 34.418277998646346 41.5 30 L 41.5 8.5 C 41.5 4.081722001353653 37.918277998646346 0.5 33.5 0.5 L 8.5 0.5 C 4.081722001353653 0.5 0.5 4.081722001353653 0.5 8.5 z"/>
</g>
</g>
<g transform="matrix(1, 0, 0, 1, 662.2000122070312, 95)">
<g stroke-opacity="1" fill="none" stroke="#bebebe">
  <path d="M 0.5 8.5 L 0.5 30 C 0.5 34.418277998646346 4.081722001353653 38 8.5 38 L 33.5 38 C 37.918277998646346 38 41.5 34.418277998646346 41.5 30 L 41.5 8.5 C 41.5 4.081722001353653 37.918277998646346 0.5 33.5 0.5 L 8.5 0.5 C 4.081722001353653 0.5 0.5 4.081722001353653 0.5 8.5 z"/>
</g>
</g>
<g transform="matrix(1, 0, 0, 1, 668.2000122070312, 109.25)">
  <text x="0" y="10.0" font-weight="normal" font-size="10px" font-style="normal" fill="#000000" stroke="none" font-family="Helvetica" style="white-space: pre" fill-opacity="1" textLength="30.0px" lengthAdjust="spacingAndGlyphs">Player</text>
</g>
<g transform="matrix(1, 0, 0, 1, 657.5000123977661, 118)">
<g fill="#000000" fill-rule="nonzero" fill-opacity="1" stroke="none">
  <path d="M 0 0 L 8 4 L 0 8 z"/>
</g>
</g>
<g transform="matrix(1, 0, 0, 1, 657.5000123977661, 118)">
<g stroke-opacity="1" fill="none" stroke="#000000">
  <path d="M 0 0 L 8 4 L 0 8 z"/>
</g>
</g>
<g transform="matrix(1, 0, 0, 1, 584.5000123977661, 111)">
  <text x="0" y="8.0" font-weight="normal" font-size="8px" font-style="normal" fill="#000000" stroke="none" font-family="Helvetica" style="white-space: pre" fill-opacity="1" textLength="71.0px" lengthAdjust="spacingAndGlyphs">tempo_change_in</text>
</g>
<g transform="matrix(1, 0, 0, 1, 657.5000123977661, 103)">
<g fill="#000000" fill-rule="nonzero" fill-opacity="1" stroke="none">
  <path d="M 0 0 L 8 4 L 0 8 z"/>
</g>
</g>
<g transform="matrix(1, 0, 0, 1, 657.5000123977661, 103)">
<g stroke-opacity="1" fill="none" stroke="#000000">
  <path d="M 0 0 L 8 4 L 0 8 z"/>
</g>
</g>
<g transform="matrix(1, 0, 0, 1, 581.5000123977661, 96)">
  <text x="0" y="8.0" font-weight="normal" font-size="8px" font-style="normal" fill="#000000" stroke="none" font-family="Helvetica" style="white-space: pre" fill-opacity="1" textLength="74.0px" lengthAdjust="spacingAndGlyphs">rhythm_change_in</text>
</g>
<g transform="matrix(1, 0, 0, 1, 700.9000129699707, 103)">
<g fill="#000000" fill-rule="nonzero" fill-opacity="1" stroke="none">
  <path d="M 0 0 L 8 4 L 0 8 z"/>
</g>
</g>
<g transform="matrix(1, 0, 0, 1, 700.9000129699707, 103)">
<g stroke-opacity="1" fill="none" stroke="#000000">
  <path d="M 0 0 L 8 4 L 0 8 z"/>
</g>
</g>
<g transform="matrix(1, 0, 0, 1, 710.9000129699707, 96)">
  <text x="0" y="8.0" font-weight="normal" font-size="8px" font-style="normal" fill="#000000" stroke="none" font-family="Helvetica" style="white-space: pre" fill-opacity="1" textLength="59.0px" lengthAdjust="spacingAndGlyphs">tempo_change</text>
</g>
<g transform="matrix(1, 0, 0, 1, 700.9000129699707, 118)">
<g fill="#000000" fill-rule="nonzero" fill-opacity="1" stroke="none">
  <path d="M 0 0 L 8 4 L 0 8 z"/>
</g>
</g>
<g transform="matrix(1, 0, 0, 1, 700.9000129699707, 118)">
<g stroke-opacity="1" fill="none" stroke="#000000">
  <path d="M 0 0 L 8 4 L 0 8 z"/>
</g>
</g>
<g transform="matrix(1, 0, 0, 1, 710.9000129699707, 111)">
  <text x="0" y="8.0" font-weight="normal" font-size="8px" font-style="normal" fill="#000000" stroke="none" font-family="Helvetica" style="white-space: pre" fill-opacity="1" textLength="62.0px" lengthAdjust="spacingAndGlyphs">rhythm_change</text>
</g>
<g transform="matrix(1, 0, 0, 1, 0, 22)">
<g stroke-opacity="1" fill="none" stroke="#000000">
  <path d="M 502.5 108 L 574 108 L 574 100 L 657.5 100"/>
</g>
</g>
<g transform="matrix(1, 0, 0, 1, 0, 22)">
<g stroke-opacity="1" fill="none" stroke="#000000">
  <path d="M 502.5 85 L 657.5 85"/>
</g>
</g>
<g transform="matrix(1, 0, 0, 1, 0, 22)">
<g stroke-opacity="1" fill="none" stroke="#000000">
  <path d="M 708.9000244140625 85 L 780.4000244140625 85 L 780.4000244140625 7 L 13.5 7 L 13.5 64 L 97 64"/>
</g>
</g>
<g transform="matrix(1, 0, 0, 1, 0, 22)">
<g stroke-opacity="1" fill="none" stroke="#000000">
  <path d="M 708.9000244140625 100 L 787.9000244140625 100 L 787.9000244140625 -1 L 6 -1 L 6 90 L 97 90"/>
</g>
</g>
</g>
</svg>
